<mxfile host="app.diagrams.net" modified="2023-07-19T16:34:52.350Z" agent="Mozilla/5.0 (X11; Linux x86_64) AppleWebKit/537.36 (KHTML, like Gecko) Chrome/114.0.0.0 Safari/537.36" etag="JxWaMWJ4TcFFOBPPE31-" version="21.6.3" type="github">
  <diagram name="Page-1" id="HhuZ1BqPVkv132cXWcXG">
    <mxGraphModel dx="1580" dy="759" grid="1" gridSize="10" guides="1" tooltips="1" connect="1" arrows="1" fold="1" page="1" pageScale="1" pageWidth="827" pageHeight="1169" math="0" shadow="0">
      <root>
        <mxCell id="0" />
        <mxCell id="1" parent="0" />
        <mxCell id="ElEYC6ypUTFpbmt03J2j-24" style="edgeStyle=orthogonalEdgeStyle;rounded=0;orthogonalLoop=1;jettySize=auto;html=1;" edge="1" parent="1" source="ElEYC6ypUTFpbmt03J2j-1" target="ElEYC6ypUTFpbmt03J2j-12">
          <mxGeometry relative="1" as="geometry" />
        </mxCell>
        <mxCell id="ElEYC6ypUTFpbmt03J2j-25" style="edgeStyle=orthogonalEdgeStyle;rounded=0;orthogonalLoop=1;jettySize=auto;html=1;" edge="1" parent="1" source="ElEYC6ypUTFpbmt03J2j-1" target="ElEYC6ypUTFpbmt03J2j-11">
          <mxGeometry relative="1" as="geometry" />
        </mxCell>
        <mxCell id="ElEYC6ypUTFpbmt03J2j-26" style="edgeStyle=orthogonalEdgeStyle;rounded=0;orthogonalLoop=1;jettySize=auto;html=1;" edge="1" parent="1" source="ElEYC6ypUTFpbmt03J2j-1" target="ElEYC6ypUTFpbmt03J2j-13">
          <mxGeometry relative="1" as="geometry" />
        </mxCell>
        <mxCell id="ElEYC6ypUTFpbmt03J2j-1" value="Subscription" style="image;aspect=fixed;html=1;points=[];align=center;fontSize=12;image=img/lib/azure2/general/Subscriptions.svg;" vertex="1" parent="1">
          <mxGeometry x="200" y="392" width="44" height="71" as="geometry" />
        </mxCell>
        <mxCell id="ElEYC6ypUTFpbmt03J2j-20" value="" style="edgeStyle=orthogonalEdgeStyle;rounded=0;orthogonalLoop=1;jettySize=auto;html=1;" edge="1" parent="1" source="ElEYC6ypUTFpbmt03J2j-2" target="ElEYC6ypUTFpbmt03J2j-5">
          <mxGeometry relative="1" as="geometry" />
        </mxCell>
        <mxCell id="ElEYC6ypUTFpbmt03J2j-35" value="" style="edgeStyle=orthogonalEdgeStyle;rounded=0;orthogonalLoop=1;jettySize=auto;html=1;" edge="1" parent="1" source="ElEYC6ypUTFpbmt03J2j-2" target="ElEYC6ypUTFpbmt03J2j-5">
          <mxGeometry relative="1" as="geometry" />
        </mxCell>
        <mxCell id="ElEYC6ypUTFpbmt03J2j-2" value="Tailwind Traders -Tanent&lt;br&gt;" style="image;aspect=fixed;html=1;points=[];align=center;fontSize=12;image=img/lib/azure2/general/Management_Groups.svg;" vertex="1" parent="1">
          <mxGeometry x="381" y="89" width="66" height="64" as="geometry" />
        </mxCell>
        <mxCell id="ElEYC6ypUTFpbmt03J2j-4" value="Sales" style="image;aspect=fixed;html=1;points=[];align=center;fontSize=12;image=img/lib/azure2/general/Resource_Groups.svg;" vertex="1" parent="1">
          <mxGeometry x="660" y="562" width="68" height="64" as="geometry" />
        </mxCell>
        <mxCell id="ElEYC6ypUTFpbmt03J2j-33" style="edgeStyle=orthogonalEdgeStyle;rounded=0;orthogonalLoop=1;jettySize=auto;html=1;" edge="1" parent="1" source="ElEYC6ypUTFpbmt03J2j-5" target="ElEYC6ypUTFpbmt03J2j-28">
          <mxGeometry relative="1" as="geometry" />
        </mxCell>
        <mxCell id="ElEYC6ypUTFpbmt03J2j-34" style="edgeStyle=orthogonalEdgeStyle;rounded=0;orthogonalLoop=1;jettySize=auto;html=1;" edge="1" parent="1" source="ElEYC6ypUTFpbmt03J2j-5" target="ElEYC6ypUTFpbmt03J2j-29">
          <mxGeometry relative="1" as="geometry" />
        </mxCell>
        <mxCell id="ElEYC6ypUTFpbmt03J2j-5" value="IT Management Group&lt;br&gt;" style="image;aspect=fixed;html=1;points=[];align=center;fontSize=12;image=img/lib/azure2/general/Management_Groups.svg;" vertex="1" parent="1">
          <mxGeometry x="381" y="197" width="64.97" height="63" as="geometry" />
        </mxCell>
        <mxCell id="ElEYC6ypUTFpbmt03J2j-21" style="edgeStyle=orthogonalEdgeStyle;rounded=0;orthogonalLoop=1;jettySize=auto;html=1;" edge="1" parent="1" source="ElEYC6ypUTFpbmt03J2j-6" target="ElEYC6ypUTFpbmt03J2j-10">
          <mxGeometry relative="1" as="geometry" />
        </mxCell>
        <mxCell id="ElEYC6ypUTFpbmt03J2j-22" style="edgeStyle=orthogonalEdgeStyle;rounded=0;orthogonalLoop=1;jettySize=auto;html=1;" edge="1" parent="1" source="ElEYC6ypUTFpbmt03J2j-6" target="ElEYC6ypUTFpbmt03J2j-9">
          <mxGeometry relative="1" as="geometry" />
        </mxCell>
        <mxCell id="ElEYC6ypUTFpbmt03J2j-23" style="edgeStyle=orthogonalEdgeStyle;rounded=0;orthogonalLoop=1;jettySize=auto;html=1;" edge="1" parent="1" source="ElEYC6ypUTFpbmt03J2j-6" target="ElEYC6ypUTFpbmt03J2j-4">
          <mxGeometry relative="1" as="geometry" />
        </mxCell>
        <mxCell id="ElEYC6ypUTFpbmt03J2j-6" value="Subscription" style="image;aspect=fixed;html=1;points=[];align=center;fontSize=12;image=img/lib/azure2/general/Subscriptions.svg;" vertex="1" parent="1">
          <mxGeometry x="582" y="392" width="44" height="71" as="geometry" />
        </mxCell>
        <mxCell id="ElEYC6ypUTFpbmt03J2j-9" value="&lt;span style=&quot;color: rgb(34, 34, 34); font-family: &amp;quot;Segoe UI&amp;quot;, serif; font-size: 16px; font-style: normal; font-variant-ligatures: normal; font-variant-caps: normal; font-weight: 400; letter-spacing: normal; orphans: 2; text-align: right; text-indent: 0px; text-transform: none; widows: 2; word-spacing: 0px; -webkit-text-stroke-width: 0px; background-color: rgb(255, 255, 255); text-decoration-thickness: initial; text-decoration-style: initial; text-decoration-color: initial; float: none; display: inline !important;&quot;&gt;Marketing&lt;/span&gt;" style="image;aspect=fixed;html=1;points=[];align=center;fontSize=12;image=img/lib/azure2/general/Resource_Groups.svg;" vertex="1" parent="1">
          <mxGeometry x="571" y="531" width="68" height="64" as="geometry" />
        </mxCell>
        <mxCell id="ElEYC6ypUTFpbmt03J2j-10" value="Product Development" style="image;aspect=fixed;html=1;points=[];align=center;fontSize=12;image=img/lib/azure2/general/Resource_Groups.svg;" vertex="1" parent="1">
          <mxGeometry x="480" y="562" width="68" height="64" as="geometry" />
        </mxCell>
        <mxCell id="ElEYC6ypUTFpbmt03J2j-11" value="Sales&lt;br&gt;" style="image;aspect=fixed;html=1;points=[];align=center;fontSize=12;image=img/lib/azure2/general/Resource_Groups.svg;" vertex="1" parent="1">
          <mxGeometry x="278" y="562" width="68" height="64" as="geometry" />
        </mxCell>
        <mxCell id="ElEYC6ypUTFpbmt03J2j-12" value="&lt;p style=&quot;margin-bottom: 0in; direction: rtl; line-height: 1px; text-align: right; background-image: initial; background-position: initial; background-size: initial; background-repeat: initial; background-attachment: initial; background-origin: initial; background-clip: initial; font-size: medium; margin-top: 0.19in;&quot; align=&quot;left&quot;&gt;&lt;font color=&quot;#222222&quot;&gt;&lt;font face=&quot;Segoe UI, serif&quot;&gt;&lt;font style=&quot;font-size: 12pt;&quot;&gt;Marketing&lt;/font&gt;&lt;/font&gt;&lt;/font&gt;&lt;/p&gt;" style="image;aspect=fixed;html=1;points=[];align=center;fontSize=12;image=img/lib/azure2/general/Resource_Groups.svg;" vertex="1" parent="1">
          <mxGeometry x="188" y="528" width="68" height="64" as="geometry" />
        </mxCell>
        <mxCell id="ElEYC6ypUTFpbmt03J2j-13" value="&lt;p style=&quot;margin-bottom: 0in; direction: rtl; line-height: 1px; text-align: right; background-image: initial; background-position: initial; background-size: initial; background-repeat: initial; background-attachment: initial; background-origin: initial; background-clip: initial; font-size: medium; margin-top: 0.19in;&quot; align=&quot;left&quot;&gt;&lt;font color=&quot;#222222&quot;&gt;&lt;font face=&quot;Segoe UI, serif&quot;&gt;&lt;font style=&quot;font-size: 12pt;&quot;&gt;Product Development&lt;/font&gt;&lt;/font&gt;&lt;/font&gt;&lt;/p&gt;" style="image;aspect=fixed;html=1;points=[];align=center;fontSize=12;image=img/lib/azure2/general/Resource_Groups.svg;" vertex="1" parent="1">
          <mxGeometry x="98" y="562" width="68" height="64" as="geometry" />
        </mxCell>
        <mxCell id="ElEYC6ypUTFpbmt03J2j-31" value="" style="edgeStyle=orthogonalEdgeStyle;rounded=0;orthogonalLoop=1;jettySize=auto;html=1;" edge="1" parent="1" source="ElEYC6ypUTFpbmt03J2j-28" target="ElEYC6ypUTFpbmt03J2j-1">
          <mxGeometry relative="1" as="geometry" />
        </mxCell>
        <mxCell id="ElEYC6ypUTFpbmt03J2j-28" value="Sporting Goods&lt;br&gt;" style="image;aspect=fixed;html=1;points=[];align=center;fontSize=12;image=img/lib/azure2/general/Management_Groups.svg;" vertex="1" parent="1">
          <mxGeometry x="188" y="290" width="66" height="64" as="geometry" />
        </mxCell>
        <mxCell id="ElEYC6ypUTFpbmt03J2j-30" value="" style="edgeStyle=orthogonalEdgeStyle;rounded=0;orthogonalLoop=1;jettySize=auto;html=1;" edge="1" parent="1" source="ElEYC6ypUTFpbmt03J2j-29" target="ElEYC6ypUTFpbmt03J2j-6">
          <mxGeometry relative="1" as="geometry" />
        </mxCell>
        <mxCell id="ElEYC6ypUTFpbmt03J2j-29" value="Apparel&lt;br&gt;" style="image;aspect=fixed;html=1;points=[];align=center;fontSize=12;image=img/lib/azure2/general/Management_Groups.svg;" vertex="1" parent="1">
          <mxGeometry x="570" y="290" width="66" height="64" as="geometry" />
        </mxCell>
      </root>
    </mxGraphModel>
  </diagram>
</mxfile>
